<svg width="270" height="228" xmlns="http://www.w3.org/2000/svg" xmlns:xlink="http://www.w3.org/1999/xlink" overflow="hidden"><defs><clipPath id="clip0"><path d="M532 192 802 192 802 420 532 420Z" fill-rule="evenodd" clip-rule="evenodd"/></clipPath></defs><g clip-path="url(#clip0)" transform="translate(-532 -192)"><path d="M582.709 285.217 594.145 285.217C597.296 285.217 599.769 286.083 601.565 287.815 603.361 289.547 604.259 291.658 604.259 294.149 604.259 296.64 603.361 298.767 601.565 300.529 599.769 302.291 597.296 303.172 594.145 303.172L582.709 303.172ZM569.949 273.551 569.949 338.809 582.709 338.809 582.709 314.839 593.767 314.839C598.052 314.839 601.959 313.973 605.487 312.241 609.016 310.509 611.789 308.064 613.805 304.904 615.821 301.744 616.83 298.159 616.83 294.149 616.83 290.139 615.821 286.569 613.805 283.44 611.789 280.311 609.016 277.88 605.487 276.148 601.959 274.417 598.052 273.551 593.767 273.551ZM539.4 245.733 643.003 245.733C647.09 245.733 650.403 248.928 650.403 252.869L650.403 359.131C650.403 363.072 647.09 366.267 643.003 366.267L539.4 366.267C535.313 366.267 532 363.072 532 359.131L532 252.869C532 248.928 535.313 245.733 539.4 245.733ZM678.829 193.388 678.829 316.55C678.829 320.714 682.142 324.09 686.229 324.09L799.435 324.09 798.745 328.699C788.394 380.234 743.639 419 689.997 419 659.344 419 631.594 406.342 611.506 385.876L607.454 381.333 659.091 381.333C663.161 381.333 666.461 377.975 666.461 373.832L666.461 238.168C666.461 234.025 663.161 230.667 659.091 230.667L607.177 230.667 607.831 229.865C625.747 209.781 650.661 196.293 678.648 193.397ZM693.629 193 701.346 193.397C757.32 199.189 801 247.351 801 305.907L800.846 309.011 693.629 309.011Z" fill="#FFFFFF" fill-rule="evenodd"/></g></svg>