<svg width="35.969" height="24.313" viewBox="0 0 35.969 24.313" xmlns="http://www.w3.org/2000/svg" xmlns:xlink="http://www.w3.org/1999/xlink" overflow="hidden"><defs></defs><path d="M15.58 10.825C14.576 8.871 13.531 7.104 12.749 5.231 12.082 3.633 11.109 2.963 9.339 3.162 8.084 3.303 6.8 3.183 5.53 3.193 4.571 3.2 4.387 3.464 4.808 4.281 7.153 8.835 9.508 13.384 11.867 17.932 12.001 18.192 12.19 18.424 12.447 18.809 12.72 18.411 12.945 18.145 13.101 17.845 15.905 12.435 18.724 7.032 21.478 1.597 22.032 0.47 22.556 0.059 23.985 0.038 27.26-0.009 30.659 0.005 33.935 0.011 35.736 0.014 36.45 1.124 35.646 2.7 32.143 9.552 28.627 16.398 25.122 23.25 24.791 23.895 24.328 24.293 23.546 24.294 22.776 24.295 22.289 23.942 21.955 23.281 20.932 21.255 19.878 19.244 18.86 17.216 18.737 16.97 18.644 16.599 18.745 16.376 19.236 15.301 20.13 14.266 21.031 13 21.72 14.689 22.205 16.445 23.031 18 23.177 18.275 23.307 18.37 23.513 18.615 23.719 18.376 23.982 18.165 24.123 17.893 26.438 13.447 28.738 8.994 31.039 4.54 31.644 3.368 31.529 3.194 30.158 3.191 28.69 3.188 27.219 3.242 25.754 3.173 24.692 3.122 24.106 3.555 23.65 4.459 21.079 9.549 18.466 14.62 15.866 19.697 15.261 20.88 14.642 22.056 14.047 23.243 13.721 23.893 13.253 24.285 12.476 24.299 11.655 24.315 11.189 23.893 10.844 23.216 8.243 18.11 5.632 13.008 3.02 7.907 2.137 6.182 1.237 4.465 0.355 2.74-0.471 1.124 0.178 0.002 2.031 -0 5.42-0.004 8.642 0.022 12.031 -0 12.991-0.006 13.86 0.367 14.282 1.201 15.221 3.055 16.191 4.894 17.126 6.75 17.239 6.974 17.33 7.314 17.237 7.516 16.742 8.587 16.186 9.631 15.58 10.825Z" fill="#FFFFFF" fill-rule="evenodd"/></svg>